<?xml version="1.0" standalone="no"?>
<!DOCTYPE svg PUBLIC "-//W3C//DTD SVG 20010904//EN"
 "http://www.w3.org/TR/2001/REC-SVG-20010904/DTD/svg10.dtd">
<svg version="1.0" xmlns="http://www.w3.org/2000/svg"
 width="300.000000pt" height="300.000000pt" viewBox="0 0 300.000000 300.000000"
 preserveAspectRatio="xMidYMid meet">
<metadata>
Created by potrace 1.11, written by Peter Selinger 2001-2013
</metadata>
<g transform="translate(0.000000,300.000000) scale(0.100000,-0.100000)"
fill="#000000" stroke="none">
<path d="M0 1500 l0 -1500 1500 0 1500 0 0 1500 0 1500 -1500 0 -1500 0 0
-1500z m1623 1256 l137 2 0 -50 0 -50 -92 6 c-51 4 -111 9 -133 13 l-40 5 47
-43 c30 -28 59 -70 80 -114 29 -62 32 -80 33 -155 0 -47 -6 -104 -13 -127 -31
-103 -125 -194 -241 -234 -53 -18 -94 -23 -206 -26 -169 -5 -175 -6 -208 -39
-46 -46 -34 -148 22 -174 16 -8 105 -16 241 -21 140 -5 235 -13 273 -23 32 -9
60 -16 63 -16 3 0 2 60 -2 133 l-7 134 123 0 122 0 -6 -76 c-11 -143 -19 -956
-11 -1213 l7 -258 197 0 c177 0 380 12 439 25 21 5 22 3 22 -65 l0 -70 -447 0
-446 0 6 118 c14 251 20 622 11 622 -6 0 -14 -4 -19 -9 -22 -21 -138 -72 -197
-86 -80 -19 -272 -19 -358 -1 -205 44 -322 163 -323 331 -1 127 65 231 183
288 l69 33 -34 13 c-63 23 -115 105 -115 184 0 68 72 166 138 188 l34 11 -49
28 c-61 35 -129 108 -156 168 -29 66 -36 222 -12 294 43 133 154 222 320 259
22 4 123 5 225 1 102 -4 247 -6 323 -6z"/>
<path d="M1140 2691 c-79 -17 -144 -72 -182 -156 -20 -43 -23 -66 -23 -165 0
-105 2 -120 28 -175 36 -76 51 -93 112 -121 64 -30 170 -33 230 -5 164 76 215
370 94 542 -42 59 -170 99 -259 80z"/>
<path d="M1126 1589 c-105 -11 -195 -53 -231 -107 -67 -102 -47 -291 42 -373
84 -79 243 -109 391 -74 120 29 194 82 239 173 23 48 28 69 27 132 -2 165 -70
229 -266 250 -51 5 -100 9 -108 8 -8 0 -50 -4 -94 -9z"/>
</g>
</svg>
