<?xml version="1.0" standalone="no"?>
<!DOCTYPE svg PUBLIC "-//W3C//DTD SVG 20010904//EN"
 "http://www.w3.org/TR/2001/REC-SVG-20010904/DTD/svg10.dtd">
<svg version="1.0" xmlns="http://www.w3.org/2000/svg"
 width="300.000000pt" height="300.000000pt" viewBox="0 0 300.000000 300.000000"
 preserveAspectRatio="xMidYMid meet">
<metadata>
Created by potrace 1.11, written by Peter Selinger 2001-2013
</metadata>
<g transform="translate(0.000000,300.000000) scale(0.100000,-0.100000)"
fill="#000000" stroke="none">
<path d="M0 1500 l0 -1500 1500 0 1500 0 0 1500 0 1500 -1500 0 -1500 0 0
-1500z m1630 1257 l135 2 0 -51 0 -50 -80 6 c-44 4 -105 9 -135 13 l-55 6 47
-44 c29 -28 59 -70 80 -114 30 -64 33 -78 32 -160 -1 -119 -27 -190 -98 -260
-93 -93 -193 -125 -391 -125 -135 0 -158 -6 -192 -50 -16 -19 -17 -91 -2 -123
20 -43 51 -50 279 -58 139 -5 235 -13 273 -23 32 -9 60 -16 62 -16 2 0 1 60
-2 134 l-6 134 122 0 123 0 -6 -51 c-9 -92 -19 -1197 -11 -1349 l7 -148 192 0
c171 0 384 12 443 25 20 5 21 1 21 -65 l-1 -70 -443 0 -442 0 5 371 6 371 -49
-30 c-92 -56 -165 -75 -314 -80 -211 -6 -339 30 -439 123 -162 152 -108 428
101 515 l57 23 -41 20 c-80 40 -122 137 -98 226 14 52 66 112 120 136 l40 18
-48 27 c-60 35 -128 108 -154 167 -45 102 -42 247 8 349 44 92 147 167 272
199 46 12 95 13 252 7 107 -4 256 -6 330 -5z"/>
<path d="M1114 2686 c-67 -21 -111 -62 -146 -133 -27 -55 -33 -80 -36 -152 -7
-151 34 -262 120 -318 36 -24 54 -28 128 -31 99 -4 140 10 197 70 56 58 77
119 81 238 2 60 -1 123 -7 147 -18 66 -70 134 -123 161 -58 30 -155 38 -214
18z"/>
<path d="M1126 1589 c-105 -11 -195 -53 -231 -107 -68 -103 -47 -291 42 -373
84 -79 243 -109 391 -74 114 27 184 75 232 159 27 46 30 60 30 141 -1 134 -27
183 -122 225 -39 17 -200 42 -248 38 -8 0 -50 -4 -94 -9z"/>
</g>
</svg>
